<?xml version="1.0" encoding="ISO-8859-1" standalone="no"?>
<svg xmlns:rdf="http://www.w3.org/1999/02/22-rdf-syntax-ns#" xmlns="http://www.w3.org/2000/svg" xmlns:cc="http://web.resource.org/cc/" xmlns:dc="http://purl.org/dc/elements/1.1/" xmlns:svg="http://www.w3.org/2000/svg" version="1.1" viewBox="0 0 384 672">
  <path d="m0 0h384v672h-384v-672z" fill="#fdfcd9"/>
  <path d="m188.43 27.41c1.66 0.01 3.33 0.02 5 0.05-2.63 5.05 1.93 9.48 2.45 14.43-1.53 2.14-3.33 4.08-4.9 6.19-1.89-2.01-4.03-3.82-5.61-6.1 1.69-4.73 4.12-9.36 3.06-14.57z" fill="#c13f35"/>
  <path d="m167.32 41.4c6.51-2.31 14.54-1.29 19.64 3.6 1.75 1.55 2.17 3.92 2.68 6.08-1.2 0.41-2.42 0.77-3.66 1.08-5.63-0.64-7.7-7.17-12.88-8.7-2.73-0.58-5.38 0.53-8 1.12 0.71-1.08 1.32-2.25 2.22-3.18z" fill="#c13f35"/>
  <path d="m192.23 51.06c1.11-6.89 8.35-10.47 14.71-10.72 3.67-0.41 8.01 0.28 9.81 3.95-2.15-0.05-4.29-0.49-6.45-0.4-5.81 0.86-8.99 6.46-14.1 8.76-0.99-0.4-2.98-1.19-3.97-1.59z" fill="#c13f35"/>
  <path d="m207.7 47.7c22.1-0.77 44.21 0.07 66.31-0.3 16.35 0.25 32.7-0.45 49.04-0.01 6.6 0.24 13.2-0.82 19.79-0.18-0.02 0.54-0.08 1.61-0.1 2.15-12.6 0.05-25.17 1.09-37.77 1.35-12.97 1.08-26 0.28-38.99 0.9-12.58 1.2-25.24 0.25-37.85 0.95-6.86-0.25-13.75 1.41-20.55 0.12l0.12-4.98z" fill="#c13f35"/>
  <path d="m61.02 48.7c37.39-0.35 74.79-1.36 112.19-1.07 2 1.34 1.73 6.12-1.22 5.93-6.98 0.05-13.96-0.48-20.94-0.4-15-0.85-30.03-0.19-45.03-0.9-21.52-0.03-43.01-1.24-64.53-1.01-0.1-0.5-0.28-1.49-0.38-1.99 6.65 0.26 13.26-0.62 19.91-0.56z" fill="#c13f35"/>
  <path d="m188.57 52.93c0.7-1.27 2.15-1.6 3.39-2.07 1.04 3.15 0.56 6.53-0.39 9.63l-1.58 0.92c-0.51-2.82-1.21-5.62-1.42-8.48z" fill="#c13f35"/>
  <path d="m71.17 56.62c3.16-0.52 5.7-2.53 8.42-4.03-0.97 4.6-5.83 6.01-9.68 7.32 3.47 1.29 6.98 2.81 9.55 5.58 5.26 4.83 6.19 13.04 12.36 17.02 1.63 0 3.27-0.05 4.9-0.15-1.81 3.79-7.62 4.29-10.22 1.13-2.38-2.87-3.85-6.34-5.68-9.55-0.8 2.29-1.29 5.03-3.53 6.41-2.5 1.56-4.99 3.13-7.19 5.1-5.1-1.36-10.32 0.36-15.17 1.9-3.01 0.92-4.5 3.87-5.58 6.57 0.34 0.61 1.03 1.83 1.37 2.44 3.32 1.23 7.1 1.96 10.49 0.6 2.57-0.92 4.16-3.26 5.82-5.27 1.7 0.01 3.39 0.04 5.08 0.09-2.24 5.07-7.61 8.18-13.02 8.45-2.59-0.15-5.15-0.59-7.72-0.9 1.26 4.08 2.99 8 4.26 12.08-5.4-0.55-11.77-0.98-15.33-5.7-4.01-4.51-3.67-11.81 0.17-16.29 4.06-4.79 10.42-6.67 16.41-7.53-2.94-1.33-5.71-3.42-6.07-6.89 5.49 5.46 13.99 5.02 20.69 2.3 1.74-0.84 2.29-2.91 3.28-4.41-1.85-3.71-5.95-3.95-9.59-4.08 0.6 0.15 1.8 0.45 2.41 0.6 0.57 1.79 1.7 3.69 0.64 5.54-1.01 1.01-2.5 1.17-3.78 1.61 0.12-1.68 0.24-3.36 0.32-5.04-5.72-1.62-11.7 0.01-17.1 2.04-3.63 1.26-5.57 4.99-9.17 6.32-1.19-8.27 7.58-12.81 14.53-13.59 0.47-0.49 0.93-0.99 1.4-1.48-4.61-1.2-7.35 4.59-12.09 3.77-0.67-4.2 2.56-7.98 6.47-9.01 7.25-2.32 14.99-1.35 22.35-2.95z" fill="#c13f35"/>
  <path d="m79.81 53.78c11.48 0.67 22.99 0.45 34.49 0.79 1.88 2.36 3.45 4.96 4.64 7.73-7.04 0.85-13.98 2.27-20.94 3.58-4.74 1.09-10.61-0.88-12.4-5.73-1.07-2.82-3.27-4.82-5.79-6.37z" fill="#c13f35"/>
  <path d="m267.2 53.62c11.03 0.32 22.08 0.03 33.11-0.27-3.72 3.65-4.52 10.17-9.99 11.81-3.64 0.67-7.3-0.39-10.9-0.86-5.46-1.02-11.06-1.33-16.42-2.86 0.89-2.85 2.03-5.68 4.2-7.82z" fill="#c13f35"/>
  <path d="m302.06 52.64c10.53 5.41 23.12 2.44 33.77 7.43 2.69 1.15 3.31 4 2.84 6.63-3.84 0.51-6.6-2.27-10-3.36-0.04 0.43-0.13 1.28-0.17 1.7 4.45 1.12 9.19 2.45 12.47 5.86 2 2.04 3.32 5.36 1.4 7.9-6.34-7.25-16.16-10.8-25.69-9.46-0.19 0.45-0.58 1.34-0.77 1.79 0.6 0.87 1.19 1.76 1.77 2.65-1.89 0.79-5.6 1.39-5.44-1.71-0.9-3.43 3.11-3.58 4.28-5.99-2.55 1.46-6.63 1.64-7.56 5-0.86 1.85 0.34 4.07 2.07 4.92 3.05 1.53 6.6 1.64 9.95 1.48 3.37-0.36 7.18-1.1 9.21-4.12 0.51 0.56 1.02 1.12 1.54 1.68-1.25 1.62-2.36 3.93-4.76 3.88-1.15 0.46-4.19-0.37-3.73 1.71 2.1 1.12 4.53 0.66 6.76 1.32 5.23 1.44 10.48 4.25 13.38 9 1.85 4.72 1.62 10.74-2.09 14.51-3.96 3.93-9.73 5.45-15.2 4.8 0.85-4.08 2.99-7.76 3.72-11.89-6.96 1.96-17.01 0.72-19.78-7.02 2.23 0.1 4.47 0.27 6.71 0.48 2.36 5.33 10.68 6.63 14.53 2.32 0.64-1.41 0.36-3.11 0.55-4.64-6.91-5.33-16.24-4.48-23.75-8.5-3.1-1.22-5.23-3.84-6.94-6.58-2.03 5.92-8.2 11.74-14.83 9.12-0.03-0.5-0.1-1.49-0.13-1.98 4.31 1.08 7.59-2.43 9.77-5.66 2.7-4.29 4.29-9.38 8.16-12.84 2.61-2.61 6.42-3.23 9.87-4.01-2.55-0.43-5.16-0.74-7.56-1.74-1.91-1.05-3.04-3.02-4.35-4.68z" fill="#c13f35"/>
  <path d="m116.93 54.36c10.01 0.2 20.07-0.25 30.05 0.46 0.31 0.56 0.93 1.67 1.24 2.22-1.07 0.64-2.08 1.35-3.03 2.15 3.17-0.74 4.4 1.83 5.62 4.07-5.78 2.39-11.9 3.78-17.8 5.8-2.1 0.54-4.89 1.59-6.65-0.24-1.54-1.75-3.22-3.39-5.42-4.29 7.96-2.56 16.34-3.78 24.65-4.52-0.64-0.51-1.28-1.01-1.93-1.51-7.31 0.61-14.47 2.97-21.82 2.8-2.2-1.84-3.39-4.56-4.91-6.94z" fill="#c13f35"/>
  <path d="m235.36 54.48c9.41-0.13 18.83-0.08 28.23-0.7-0.26 2.99-1.75 7.56-5.53 7.06-6.36-0.51-12.64-1.75-18.98-2.43-2.05-0.36-4.92-0.1-5.75-2.53 0.51-0.35 1.52-1.05 2.03-1.4z" fill="#c13f35"/>
  <path d="m150.4 58.73c-0.54-1.38-1.57-3.27 0.4-3.98 2.96-0.39 5.95-0.22 8.92-0.28 0.31 1.93 0.38 3.92 1.01 5.78 2.02 3 5.43 4.68 8.83 5.62 6.3 1.69 12.89 2.32 19.4 1.8-0.87-1.61-1.51-3.46-2.96-4.66-1.42-1.27-3.46-0.53-5.17-0.63-0.19 1.45-0.39 2.9-0.58 4.35-2.41-0.59-5.5-1.67-5.17-4.75 0.15-4.96 6.55-6.27 10.21-4.25 2.83 0.79 4.29 3.4 5.61 5.79 1.93-6.37 11.3-8.77 15.87-3.88 0.03 3.41-1.68 6.52-5.22 7.26-0.31-1.66-0.54-4.27-2.75-4.45-3.36-0.59-4.86 3.01-6.27 5.33 7.47-0.05 15.36 0.26 22.3-2.96 4.08-1.79 7.59-5.5 7.82-10.14 2.78-0.06 5.55-0.45 8.23-1.23 1.07 2.44 0.76 5.32-1 7.36-4.52 6.36-12.89 7.6-20.05 8.67-5.57 0.97-11.26 0.37-16.81 1.27-0.23 0.49-0.68 1.46-0.91 1.94 1.36-0.09 2.72-0.25 4.08-0.22 0.25 0.81 0.74 2.42 0.99 3.23 0.5-1.06 0.96-2.14 1.39-3.22 1.48-0.07 2.95-0.14 4.43-0.2 2.6 4.23 4.76 8.7 6.63 13.28-2.05 0.13-4.08 0.43-6.09 0.86-3.33-2.29-3.92-6.52-4.32-10.23-0.47-0.13-1.41-0.4-1.88-0.53 0.67 3.65 1.6 7.24 2.47 10.84-2.09-0.28-4.18-0.58-6.25-0.92-0.03-2.5-0.06-5.01-0.07-7.5l-1.22 0.04c-0.01 10.03-0.13 20.05-0.73 30.06 12.13-5.13 25.37-1.18 37.97-0.79 0.6 0.05 1.21 0.08 1.82 0.1-2.34-1.76-5.63-3.37-5.11-6.85 1.87-0.99 3.76-2.09 5.91-2.35 8.61-1.39 17.4-1.19 26.07-0.52-1.21 1.24-2.42 2.47-3.64 3.69-8.02-0.04-16.83-2.42-24.3 1.44 2.59 1.05 6.13 1.94 5.51 5.49-9.08 3.61-18.49-1.16-27.76-0.94-5.2 0.15-10.83 0.12-15.28 3.23-1.86 1.84-4.14 0.15-6.03-0.67-3.24-1.84-7.05-1.59-10.64-1.68-10.38-0.21-20.5 2.56-30.79 3.35 0.39-1.91-0.41-4.63 1.66-5.72 1.64-1.09 3.4-2.01 5.06-3.06-5.11-2.14-10.72-1.04-16.08-1.21-0.32 0.5-0.96 1.51-1.28 2.01-0.43-0.48-0.85-0.98-1.25-1.49-3.45 0.7-6.73-0.33-8.73-3.29 8.62-0.63 17.36-1.24 25.95 0 1.92 0.75 5.22 1.5 5.05 4.1 0.31 2.62-3.21 3.24-4.49 4.81 12.68-0.55 26.1-4.2 38.32 0.93 0.23-12.83 0.15-25.66-0.09-38.48-9.29-0.1-18.72-0.39-27.73-2.89-4.65-1.29-9.27-4.08-11.26-8.66z" fill="#c13f35"/>
  <path d="m231.18 63.04c0.8-1.48 1.48-3.13 2.88-4.16 3.38 0.37 6.65 1.34 10 1.91 5.28 1.05 10.72 1.26 15.88 2.9-1.58 1.83-3.1 3.73-4.44 5.74-4.34 0.86-8.4-1.14-12.47-2.33-3.99-1.22-7.93-2.63-11.85-4.06z" fill="#c13f35"/>
  <path d="m225.97 67.07c1.38-1 2.76-1.99 4.13-3.01 4.41 1.4 8.62 3.33 13.02 4.77 3.42 1.18 7.03 1.94 10.17 3.83-2.29 0.98-4.42 2.27-6.27 3.93-2.12 0.02-4.37 0.17-6.25-1-4.94-2.82-9.92-5.59-14.8-8.52z" fill="#c13f35"/>
  <path d="m262.45 64.68c2.52-0.53 5.14-0.13 7.65 0.3 7.44 1.51 14.91 2.89 22.45 3.8 0 0.32-0.01 0.98-0.01 1.31-3.1 1.64-5.04 4.64-7.75 6.75-3.24 2.19-7.3 1.13-10.72-0.02-5.94-2.06-12.13-3.32-17.95-5.73 2.04-2.19 3.8-4.75 6.33-6.41z" fill="#c13f35"/>
  <path d="m128.71 72.03c7.72-2.59 15.68-4.42 23.28-7.36 1.57 0.9 3.14 1.8 4.7 2.71-4.15 3.04-8.91 5.08-13.5 7.35-1.98 0.86-4.01 1.94-6.23 1.82-2.34 0.03-4-1.85-5.77-3.09-0.58 0.54-1.17 1.08-1.74 1.64 2 1.06 4.08 2.12 5.7 3.74-4.43 2.35-9.14 4.14-13.53 6.57-3.54 1.79-7.89 4.24-11.68 1.61-3.31-2.39-7.13-3.67-11.21-3.81 4.03-2.5 8.84-3.11 13.18-4.88 4.64-1.62 9.17-3.69 14.02-4.58 0.89 0.26 2.68 0.79 3.58 1.05-0.2-0.69-0.6-2.08-0.8-2.77z" fill="#c13f35"/>
  <path d="m99.96 68.1c5.75-0.7 11.37-2.21 17.13-2.86 4.22-0.65 6.18 4 9.03 6.2-6.22 2.56-12.77 4.19-19.25 5.95-3.97 1.43-9.08 1.24-11.71-2.53-1.76-2.63-4.73-3.61-7.65-4.32 3.87-1.89 8.3-1.67 12.45-2.44z" fill="#c13f35"/>
  <path d="m218.54 69.34c2.64-0.45 5.75-2.12 8.16-0.11 5.37 3.58 11.15 6.49 16.61 9.92-2.82 0.43-5.53 1.34-8.36 1.68-3.3-0.22-5.81-2.65-8.4-4.44-2.79-2.19-6-4.02-8.01-7.05z" fill="#c13f35"/>
  <path d="m151.44 72.24c3.51-1.69 7.26-5.39 11.31-2.84 0.9 1.91-1.4 2.82-2.54 3.87-4.29 2.81-8.38 5.99-13.03 8.18-2.78-1.24-5.72-2.11-8.78-2.16 3.95-3.03 8.78-4.53 13.04-7.05z" fill="#c13f35"/>
  <path d="m211.17 71.55c2.27-0.77 5.2-1.96 7.16 0.11 4.57 3.98 9.72 7.25 14.13 11.42-3.2 0.21-6.55 1.13-9.69 0.15-4.66-2.98-8.06-7.52-11.6-11.68z" fill="#c13f35"/>
  <path d="m148.96 83.12c5.45-4.52 11.7-7.98 16.91-12.8 1.78 0.12 3.56 0.26 5.34 0.42-3.3 4.9-7.85 8.77-12.03 12.89-3.4-0.17-6.81-0.39-10.22-0.51z" fill="#c13f35"/>
  <path d="m172.18 72.11c1.68-1.64 4.15-0.5 6.17-0.37-2.11 3.7-4.36 7.32-6.69 10.89-2.21 3.68-7.24 1.23-10.66 1.8 3.78-4.06 7.17-8.49 11.18-12.32z" fill="#c13f35"/>
  <path d="m204.24 71.91c1.79-0.15 3.58-0.29 5.38-0.42 3.69 4.37 7.32 8.78 11.23 12.95-3.29 0.27-6.64 0.63-9.88-0.22-1.94-4.28-5.13-7.86-6.73-12.31z" fill="#c13f35"/>
  <path d="m179.44 72.83c1.15-1.86 3.79-0.79 5.54-1.22-0.8 4.21-2.77 8.06-3.9 12.18-0.39 0.45-1.19 1.33-1.59 1.77-2.59 0.16-5.19 0.22-7.79 0.26 2.45-4.4 4.76-8.92 7.74-12.99z" fill="#c13f35"/>
  <path d="m185.9 72.08c0.66-0.21 1.97-0.61 2.63-0.81 0.15 4.74 0.14 9.53-0.74 14.22-2.1 0.38-4.2 0.76-6.31 1.12 1.71-4.77 2.71-9.76 4.42-14.53z" fill="#c13f35"/>
  <path d="m248.16 78.07c2.34-2.69 6.17-5.54 9.93-4.15 7.34 2.51 14.79 4.68 22.15 7.14 0.29 0.51 0.88 1.52 1.17 2.03-2.15 0.35-4.6 0.16-6.34 1.69-1.88 1.22-3.59 3.12-6 3.09-5.68 0.42-10.19-3.6-15.03-5.91-1.95-1.27-4.57-1.88-5.88-3.89z" fill="#c13f35"/>
  <path d="m237.21 82.81c2.94-0.67 5.72-2.3 8.79-2.3 3.57 0.75 6.6 2.98 9.81 4.61 3.49 2.1 7.62 3.21 10.56 6.16-5.31-0.95-10.11 3.84-15.28 1.53-4.89-2.28-9.1-5.72-13.55-8.71-0.09-0.32-0.25-0.97-0.33-1.29z" fill="#c13f35"/>
  <path d="m135.93 80.69c3.63-0.89 7.02 1.15 10.28 2.4-3.65 2.82-7.55 5.28-11.29 7.96-2.88 2.05-6.62 2.99-10.06 1.93-3.29-1.03-6.7-1.48-10.13-1.65 3.99-2.81 8.68-4.32 12.95-6.62 2.74-1.35 5.35-3.01 8.25-4.02z" fill="#c13f35"/>
  <path d="m145.14 86.15c3.68-2.91 8.68-1.49 12.79-0.47-3.41 3.28-6.5 7.07-10.63 9.48-4.82 1.95-10.27-1.4-14.98 1.4-0.01-0.42-0.01-1.24-0.02-1.66 4.43-2.69 8.53-5.88 12.84-8.75z" fill="#c13f35"/>
  <path d="m225.02 85.7c2.75-0.68 5.52-1.33 8.26-2.08 5.94 3.57 11.49 7.75 17.1 11.82-4.14-0.32-8.28-0.1-12.37 0.61-6.1-0.3-9.24-6.4-12.99-10.35z" fill="#c13f35"/>
  <path d="m248.58 106.55c18.09-15.89 43.01-22.34 66.73-20.87 3.86 0.41 7.88 0.8 11.32 2.77-0.36 0.85-1.08 2.56-1.44 3.41-2.16-0.1-4.31-0.36-6.42-0.83-18.28-3.77-37.66-0.7-54.24 7.72-6.22 3.11-11.52 7.68-17.44 11.28 0.28-1.24 0.35-2.67 1.49-3.48z" fill="#c13f35"/>
  <path d="m213.04 86.66c3.87 0.25 8.69-1.71 11.64 1.67 2.81 2.88 5.34 6.03 8.15 8.91-3.6-0.58-7.19 0.2-10.79 0.13-4.6-1.8-6.39-6.92-9-10.71z" fill="#c13f35"/>
  <path d="m55.36 89.44c8.72-3.52 18.4-3.02 27.62-2.82 15.84 1.27 31.13 7.19 44.23 16.08 3.01 2.1 7.21 3.62 8.07 7.62-1.29-0.47-2.61-0.92-3.66-1.82-11.7-9.02-25.74-15.03-40.42-16.89-7.31-1.5-14.82-1.62-22.25-1.09-4.07 0.52-8.02 1.73-12.11 2.15-0.37-0.81-1.11-2.42-1.48-3.23z" fill="#c13f35"/>
  <path d="m159.29 87.05c2.81-2.58 6.65-0.58 9.9-0.38-1.73 3.02-3.27 6.23-5.68 8.79-1.69 1.81-4.4 1.05-6.58 1.07-2.75-0.32-5.45 0.41-8.14 0.85 3.29-3.64 6.74-7.17 10.5-10.33z" fill="#c13f35"/>
  <path d="m171.49 87.51c2.71-0.63 5.54-0.22 8.3-0.27-1.23 3.43-1.84 7.4-4.68 9.94-2.63 1.91-6.14 0.57-9.05 1.59-1.71 1.56-3.21 3.37-5.18 4.61 0.98-4.28 4.44-7.21 6.71-10.79 1.25-1.72 2.16-3.78 3.9-5.08z" fill="#c13f35"/>
  <path d="m181.87 87.81c2.28-0.22 4.56-0.42 6.85-0.61-0.31 3.64 0.85 8.47-2.74 10.86-1.79 0.31-3.64 0.22-5.42 0.61-1.32 1.13-2.45 2.47-3.69 3.69 1.01-5.05 3.14-9.77 5-14.55z" fill="#c13f35"/>
  <path d="m194.54 98.33c-1.57-3.36-1.27-7.1-0.9-10.67 2.07 0.03 4.16-0.08 6.22 0.24 1.4 0.97 1.62 2.79 2.19 4.27 1.11 3.82 2.91 7.4 3.96 11.25-1.76-0.8-2.88-2.37-3.87-3.95-2.49-0.61-5.05-0.93-7.6-1.14z" fill="#c13f35"/>
  <path d="m202.33 88.26c2.85-0.51 5.87-1.48 8.74-0.51 1.9 1.93 3.03 4.45 4.54 6.67 1.85 3.04 4.43 5.63 5.67 9.01-2.16-1.26-3.83-3.16-5.83-4.63-2.64-0.89-5.57 0.17-8.23-0.68-3.16-2.28-3.55-6.5-4.89-9.86z" fill="#c13f35"/>
  <path d="m274.93 94.89c10.65-2.24 21.43-4.71 32.38-4.3 0.54 1.17 1.07 2.35 1.6 3.53-6.44 0.59-12.58 2.74-18.95 3.65-2.86 0.6-5.54-0.7-8.25-1.35-2.58-0.66-5.19 0.12-7.73 0.57 0.24-0.53 0.71-1.57 0.95-2.1z" fill="#c13f35"/>
  <path d="m73.82 91.94c8.34-0.81 16.66 0.74 24.86 2.08 2.6 0.4 5.13 1.16 7.45 2.39-5.49-0.88-10.5 3.21-15.88 1.4-5.71-1.54-11.51-2.67-17.34-3.66 0.23-0.55 0.68-1.66 0.91-2.21z" fill="#c13f35"/>
  <path d="m287.15 100.74c7.22-2.65 14.69-4.51 22.23-5.98 1.1 0.98 2.19 1.98 3.27 3-3.87 1.86-7.54 4.16-11.63 5.51-3.93 1.41-7.75-1.28-11.73-0.84-0.73-0.55-1.45-1.11-2.14-1.69z" fill="#c13f35"/>
  <path d="m68.69 96.96c2.24-1.37 4.84-1.88 7.38-1.09 5.91 1.54 11.88 2.92 17.61 5.09-4.01 1.55-8.5 4.75-12.82 2.24-4.01-2.18-8.46-3.55-12.17-6.24z" fill="#c13f35"/>
  <path d="m62.15 100.94c2-0.79 4.01-1.57 6-2.43 5.82 2.91 11.82 5.63 17.02 9.59-4.74-0.88-8.98 3.58-13.54 1.24-3.73-2.05-6.38-5.55-9.48-8.4z" fill="#c13f35"/>
  <path d="m302.78 103.73c3.69-1.76 7.31-3.76 11.21-5 1.73 0.45 3.34 1.23 4.97 1.95-2.87 2.88-5.28 6.42-8.91 8.39-4.07 1.64-7.92-2.55-12.08-0.94 0.5-2.4 2.97-3.28 4.81-4.4z" fill="#c13f35"/>
  <path d="m95.07 102.34c6.73-1.13 13.55-1.6 20.28-2.72 1.78 0.95 3.46 2.07 5.02 3.35-11.21 1.92-22.53 3.11-33.61 5.75-0.5-0.75-1.49-2.24-1.98-2.99 3.18-1.77 6.61-3.17 10.29-3.39z" fill="#c13f35"/>
  <path d="m261.46 101.12c2.07-0.86 4.17-2.13 6.52-1.81 6.43 0.71 12.91 1.5 19.15 3.28 3.28 0.56 6.68 0.89 9.62 2.57-0.05 0.63-0.15 1.88-0.2 2.5-8.61-0.46-16.99-3.04-25.62-3.58-3.17-0.78-7.29-0.05-9.47-2.96z" fill="#c13f35"/>
  <path d="m53.45 100.5c2.61 0.31 5.46 0 7.86 1.22 3.46 2.64 5.8 6.41 8.58 9.7-3.65-0.03-7.35 0.57-10.97-0.04-3.71-2.23-4.22-7.12-5.47-10.88z" fill="#c13f35"/>
  <path d="m320.15 100.71c2.58-0.09 5.16-0.16 7.76-0.2-1.2 3.43-1.88 7.7-5.07 9.89-3.59 0.8-7.33-0.34-10.97 0.23 2.2-3.74 5.27-6.83 8.28-9.92z" fill="#c13f35"/>
  <path d="m26.16 132.02c0.02-1.83 0.1-3.67 0.2-5.5 58.22 0.23 116.43-0.02 174.65 0.09 42.68-0.05 85.36 0.1 128.05-0.06 8.5-0.58 17 0.02 25.51-0.11 0.13 170.75-0.01 341.5 0.06 512.25-6.84 0.79-13.72 0.48-20.59 0.52-16.69-0.12-33.39 0.27-50.07-0.2-16.97 0.31-33.97 0.44-50.93-0.17-68.95-0.11-137.9 0.01-206.85-0.08-0.04-168.91 0.02-337.82-0.03-506.74z" fill="#c13f35"/>
  <path d="m31.6 131.25c2.79-0.26 5.6-0.46 8.41-0.43 103.27-0.14 206.54-0.01 309.8-0.08 0.05 116.56 0.03 233.11 0.02 349.66-106.55-0.11-213.09 0.09-319.63-0.09-0.02-49.45 0.3-98.89 0.45-148.34 0.26-18.99-0.14-38 0.5-56.98 0.08-47.91 0.22-95.82 0.45-143.74z" fill="#fdfcd9"/>
  <path d="m30.21 484.32c106.54-0.13 213.09-0.04 319.63-0.04-0.03 50.02 0.02 100.04-0.22 150.06-106.73-0.15-213.46 0.17-320.19-0.18 0.17-49.95 0.22-99.9 0.78-149.84z" fill="#fdfcd9"/>
  <metadata>
    <rdf:RDF>
      <cc:Work>
        <dc:format>image/svg+xml</dc:format>
        <dc:type rdf:resource="http://purl.org/dc/dcmitype/StillImage"/>
        <cc:license rdf:resource="http://creativecommons.org/licenses/publicdomain/"/>
        <dc:publisher>
          <cc:Agent rdf:about="http://openclipart.org/">
            <dc:title>Openclipart</dc:title>
          </cc:Agent>
        </dc:publisher>
        <dc:title>Art Nouveau Dragon Frame</dc:title>
        <dc:date>2013-04-26T07:03:54</dc:date>
        <dc:description>art nouveau style frame with dragons</dc:description>
        <dc:source>http://openclipart.org/detail/177473/art-nouveau-dragon-frame-by-doro-177473</dc:source>
        <dc:creator>
          <cc:Agent>
            <dc:title>Doro</dc:title>
          </cc:Agent>
        </dc:creator>
        <dc:subject>
          <rdf:Bag>
            <rdf:li>art nouveau</rdf:li>
            <rdf:li>border</rdf:li>
            <rdf:li>decoration</rdf:li>
            <rdf:li>dragon</rdf:li>
            <rdf:li>dragons</rdf:li>
            <rdf:li>frame</rdf:li>
            <rdf:li>jugendstil</rdf:li>
            <rdf:li>label</rdf:li>
          </rdf:Bag>
        </dc:subject>
      </cc:Work>
      <cc:License rdf:about="http://creativecommons.org/licenses/publicdomain/">
        <cc:permits rdf:resource="http://creativecommons.org/ns#Reproduction"/>
        <cc:permits rdf:resource="http://creativecommons.org/ns#Distribution"/>
        <cc:permits rdf:resource="http://creativecommons.org/ns#DerivativeWorks"/>
      </cc:License>
    </rdf:RDF>
  </metadata>
  <text x="50%" y="50%" dominant-baseline="middle" text-anchor="middle" fill="#c13f35" font-size="{{.song-font-size:18}}" font-weight="bold">{{.song}}</text>
  <text x="50%" y="83%" dominant-baseline="middle" text-anchor="middle" fill="#c13f35" font-size="{{.transcriber-font-size:14}" font-weight="bold">{{.transcriber}}</text>
</svg>
